<?xml version="1.0" encoding="iso-8859-1"?>
<!-- Generator: Adobe Illustrator 19.0.0, SVG Export Plug-In . SVG Version: 6.00 Build 0)  -->
<svg version="1.1" id="Capa_1" xmlns="http://www.w3.org/2000/svg" xmlns:xlink="http://www.w3.org/1999/xlink" x="0px" y="0px"
	 viewBox="0 0 512.001 512.001" style="enable-background:new 0 0 512.001 512.001;" xml:space="preserve">
<g>
	<path style="fill:#FF5948;" d="M224.862,440.178c-3.041,0-5.902-1.863-7.027-4.879l-43.893-117.613
		c-1.449-3.881,0.523-8.201,4.404-9.649c3.882-1.448,8.201,0.523,9.649,4.404l43.893,117.613c1.448,3.881-0.524,8.201-4.404,9.649
		C226.619,440.025,225.733,440.178,224.862,440.178z"/>
	<path style="fill:#FF5948;" d="M287.138,440.178c-0.872,0-1.757-0.153-2.622-0.475c-3.88-1.449-5.853-5.769-4.404-9.649
		l43.893-117.613c1.449-3.881,5.769-5.851,9.649-4.404c3.88,1.449,5.853,5.769,4.404,9.649l-43.893,117.613
		C293.04,438.315,290.179,440.178,287.138,440.178z"/>
</g>
<path style="fill:#756A6B;" d="M279.679,390.674H230.73c-4.554,0-8.246-3.692-8.246-8.246v-43.771c0-4.554,3.692-8.246,8.246-8.246
	h48.949c4.554,0,8.246,3.692,8.246,8.246v43.771C287.925,386.982,284.233,390.674,279.679,390.674z"/>
<path style="fill:#635A5B;" d="M279.675,330.411h-30.937c4.556,0,8.25,3.69,8.25,8.241v43.78c0,4.552-3.694,8.241-8.25,8.241h30.937
	c4.556,0,8.25-3.69,8.25-8.241v-43.78C287.925,334.101,284.231,330.411,279.675,330.411z"/>
<path style="fill:#76D1E3;" d="M421,138.941c0,93.45-73.873,221.602-165,221.602S91,232.391,91,138.941S164.873,0,256,0
	S421,45.491,421,138.941z"/>
<path style="fill:#FFD359;" d="M370.46,138.941c0,93.45-51.246,221.602-114.46,221.602S141.54,232.391,141.54,138.941
	S192.785,0,256,0S370.46,45.491,370.46,138.941z"/>
<path style="fill:#FF5948;" d="M303.451,138.941c0,93.45-21.244,221.602-47.45,221.602s-47.45-128.152-47.45-221.602
	S229.794,0,256,0S303.451,45.491,303.451,138.941z"/>
<path style="fill:#756A6B;" d="M293.128,512h-74.254c-2.277,0-4.123-1.846-4.123-4.123v-75.292c0-1.657,1.343-3,3-3h76.5
	c1.657,0,3,1.343,3,3v75.292C297.25,510.154,295.404,512,293.128,512z"/>
<path style="fill:#635A5B;" d="M266.313,429.586v78.294c0,2.276-1.847,4.121-4.125,4.121h30.938c2.278,0,4.125-1.847,4.125-4.125
	v-75.289c0-1.657-1.343-3-3-3L266.313,429.586L266.313,429.586z"/>
<rect x="214.75" y="455.76" style="fill:#FF5948;" width="82.5" height="15"/>
<g>
</g>
<g>
</g>
<g>
</g>
<g>
</g>
<g>
</g>
<g>
</g>
<g>
</g>
<g>
</g>
<g>
</g>
<g>
</g>
<g>
</g>
<g>
</g>
<g>
</g>
<g>
</g>
<g>
</g>
</svg>
